<mxfile host="app.diagrams.net" modified="2021-05-17T17:04:34.654Z" agent="5.0 (Macintosh; Intel Mac OS X 10_15_7) AppleWebKit/605.1.15 (KHTML, like Gecko) Version/14.1 Safari/605.1.15" etag="3A5wWQ9a0SaE8wFWWFGn" version="14.6.13" type="github">
  <diagram id="tx-6Q2XFGW0bUD6hqFNm" name="Page-1">
    <mxGraphModel dx="1460" dy="1277" grid="1" gridSize="10" guides="1" tooltips="1" connect="1" arrows="1" fold="1" page="1" pageScale="1" pageWidth="850" pageHeight="1100" math="0" shadow="0">
      <root>
        <mxCell id="0" />
        <mxCell id="1" parent="0" />
        <mxCell id="bMkNHmtG_OxYwOTIjefc-6" value="0" style="edgeStyle=orthogonalEdgeStyle;rounded=0;orthogonalLoop=1;jettySize=auto;html=1;" edge="1" parent="1" source="bMkNHmtG_OxYwOTIjefc-1" target="bMkNHmtG_OxYwOTIjefc-2">
          <mxGeometry relative="1" as="geometry" />
        </mxCell>
        <mxCell id="bMkNHmtG_OxYwOTIjefc-62" value="1" style="edgeStyle=none;rounded=0;orthogonalLoop=1;jettySize=auto;html=1;exitX=0;exitY=0.5;exitDx=0;exitDy=0;" edge="1" parent="1" source="bMkNHmtG_OxYwOTIjefc-1" target="bMkNHmtG_OxYwOTIjefc-60">
          <mxGeometry relative="1" as="geometry" />
        </mxCell>
        <mxCell id="bMkNHmtG_OxYwOTIjefc-1" value="Pod" style="ellipse;whiteSpace=wrap;html=1;aspect=fixed;" vertex="1" parent="1">
          <mxGeometry x="80" y="80" width="40" height="40" as="geometry" />
        </mxCell>
        <mxCell id="bMkNHmtG_OxYwOTIjefc-7" value="0" style="edgeStyle=orthogonalEdgeStyle;rounded=0;orthogonalLoop=1;jettySize=auto;html=1;" edge="1" parent="1" source="bMkNHmtG_OxYwOTIjefc-2" target="bMkNHmtG_OxYwOTIjefc-3">
          <mxGeometry relative="1" as="geometry" />
        </mxCell>
        <mxCell id="bMkNHmtG_OxYwOTIjefc-2" value="VM" style="ellipse;whiteSpace=wrap;html=1;aspect=fixed;" vertex="1" parent="1">
          <mxGeometry x="80" y="160" width="40" height="40" as="geometry" />
        </mxCell>
        <mxCell id="bMkNHmtG_OxYwOTIjefc-8" value="" style="edgeStyle=orthogonalEdgeStyle;rounded=0;orthogonalLoop=1;jettySize=auto;html=1;" edge="1" parent="1" source="bMkNHmtG_OxYwOTIjefc-3" target="bMkNHmtG_OxYwOTIjefc-4">
          <mxGeometry relative="1" as="geometry" />
        </mxCell>
        <mxCell id="bMkNHmtG_OxYwOTIjefc-73" value="0" style="edgeLabel;html=1;align=center;verticalAlign=middle;resizable=0;points=[];" vertex="1" connectable="0" parent="bMkNHmtG_OxYwOTIjefc-8">
          <mxGeometry x="0.5167" relative="1" as="geometry">
            <mxPoint as="offset" />
          </mxGeometry>
        </mxCell>
        <mxCell id="bMkNHmtG_OxYwOTIjefc-17" value="1" style="edgeStyle=none;rounded=0;orthogonalLoop=1;jettySize=auto;html=1;exitX=1;exitY=0.5;exitDx=0;exitDy=0;entryX=0;entryY=0.5;entryDx=0;entryDy=0;" edge="1" parent="1" source="bMkNHmtG_OxYwOTIjefc-3" target="bMkNHmtG_OxYwOTIjefc-15">
          <mxGeometry relative="1" as="geometry" />
        </mxCell>
        <mxCell id="bMkNHmtG_OxYwOTIjefc-36" value="1" style="edgeStyle=none;rounded=0;orthogonalLoop=1;jettySize=auto;html=1;exitX=0;exitY=0.5;exitDx=0;exitDy=0;entryX=1;entryY=0.5;entryDx=0;entryDy=0;" edge="1" parent="1" source="bMkNHmtG_OxYwOTIjefc-3" target="bMkNHmtG_OxYwOTIjefc-34">
          <mxGeometry relative="1" as="geometry" />
        </mxCell>
        <mxCell id="bMkNHmtG_OxYwOTIjefc-3" value="VN" style="ellipse;whiteSpace=wrap;html=1;aspect=fixed;" vertex="1" parent="1">
          <mxGeometry x="80" y="240" width="40" height="40" as="geometry" />
        </mxCell>
        <mxCell id="bMkNHmtG_OxYwOTIjefc-18" value="1" style="edgeStyle=none;rounded=0;orthogonalLoop=1;jettySize=auto;html=1;exitX=1;exitY=0.5;exitDx=0;exitDy=0;entryX=0;entryY=0.5;entryDx=0;entryDy=0;" edge="1" parent="1" source="bMkNHmtG_OxYwOTIjefc-4" target="bMkNHmtG_OxYwOTIjefc-16">
          <mxGeometry relative="1" as="geometry" />
        </mxCell>
        <mxCell id="bMkNHmtG_OxYwOTIjefc-37" value="1" style="edgeStyle=none;rounded=0;orthogonalLoop=1;jettySize=auto;html=1;exitX=0;exitY=0.5;exitDx=0;exitDy=0;entryX=1;entryY=0.5;entryDx=0;entryDy=0;" edge="1" parent="1" source="bMkNHmtG_OxYwOTIjefc-4" target="bMkNHmtG_OxYwOTIjefc-35">
          <mxGeometry relative="1" as="geometry" />
        </mxCell>
        <mxCell id="bMkNHmtG_OxYwOTIjefc-41" value="0" style="edgeStyle=none;rounded=0;orthogonalLoop=1;jettySize=auto;html=1;entryX=0.5;entryY=0;entryDx=0;entryDy=0;" edge="1" parent="1" source="bMkNHmtG_OxYwOTIjefc-4" target="bMkNHmtG_OxYwOTIjefc-5">
          <mxGeometry relative="1" as="geometry" />
        </mxCell>
        <mxCell id="bMkNHmtG_OxYwOTIjefc-4" value="RI" style="ellipse;whiteSpace=wrap;html=1;aspect=fixed;" vertex="1" parent="1">
          <mxGeometry x="80" y="400" width="40" height="40" as="geometry" />
        </mxCell>
        <mxCell id="bMkNHmtG_OxYwOTIjefc-45" value="1" style="edgeStyle=none;rounded=0;orthogonalLoop=1;jettySize=auto;html=1;" edge="1" parent="1" source="bMkNHmtG_OxYwOTIjefc-5" target="bMkNHmtG_OxYwOTIjefc-38">
          <mxGeometry relative="1" as="geometry" />
        </mxCell>
        <mxCell id="bMkNHmtG_OxYwOTIjefc-5" value="VMI" style="ellipse;whiteSpace=wrap;html=1;aspect=fixed;" vertex="1" parent="1">
          <mxGeometry x="80" y="520" width="40" height="40" as="geometry" />
        </mxCell>
        <mxCell id="bMkNHmtG_OxYwOTIjefc-49" value="1" style="edgeStyle=none;rounded=0;orthogonalLoop=1;jettySize=auto;html=1;" edge="1" parent="1" source="bMkNHmtG_OxYwOTIjefc-15" target="bMkNHmtG_OxYwOTIjefc-16">
          <mxGeometry relative="1" as="geometry" />
        </mxCell>
        <mxCell id="bMkNHmtG_OxYwOTIjefc-15" value="VN" style="rounded=1;whiteSpace=wrap;html=1;" vertex="1" parent="1">
          <mxGeometry x="240" y="240" width="40" height="40" as="geometry" />
        </mxCell>
        <mxCell id="bMkNHmtG_OxYwOTIjefc-55" value="1" style="edgeStyle=none;rounded=0;orthogonalLoop=1;jettySize=auto;html=1;exitX=0;exitY=0;exitDx=0;exitDy=0;entryX=1;entryY=1;entryDx=0;entryDy=0;" edge="1" parent="1" source="bMkNHmtG_OxYwOTIjefc-16" target="bMkNHmtG_OxYwOTIjefc-51">
          <mxGeometry relative="1" as="geometry" />
        </mxCell>
        <mxCell id="bMkNHmtG_OxYwOTIjefc-16" value="RI" style="rounded=1;whiteSpace=wrap;html=1;" vertex="1" parent="1">
          <mxGeometry x="240" y="400" width="40" height="40" as="geometry" />
        </mxCell>
        <mxCell id="bMkNHmtG_OxYwOTIjefc-47" value="1" style="edgeStyle=none;rounded=0;orthogonalLoop=1;jettySize=auto;html=1;exitX=0.5;exitY=1;exitDx=0;exitDy=0;entryX=0.5;entryY=0;entryDx=0;entryDy=0;" edge="1" parent="1" source="bMkNHmtG_OxYwOTIjefc-34" target="bMkNHmtG_OxYwOTIjefc-35">
          <mxGeometry relative="1" as="geometry" />
        </mxCell>
        <mxCell id="bMkNHmtG_OxYwOTIjefc-34" value="VN" style="rhombus;whiteSpace=wrap;html=1;" vertex="1" parent="1">
          <mxGeometry x="-90" y="230" width="60" height="60" as="geometry" />
        </mxCell>
        <mxCell id="bMkNHmtG_OxYwOTIjefc-48" value="1" style="edgeStyle=none;rounded=0;orthogonalLoop=1;jettySize=auto;html=1;exitX=0.5;exitY=1;exitDx=0;exitDy=0;entryX=0.5;entryY=0;entryDx=0;entryDy=0;" edge="1" parent="1" source="bMkNHmtG_OxYwOTIjefc-35" target="bMkNHmtG_OxYwOTIjefc-38">
          <mxGeometry relative="1" as="geometry" />
        </mxCell>
        <mxCell id="bMkNHmtG_OxYwOTIjefc-54" value="1" style="edgeStyle=none;rounded=0;orthogonalLoop=1;jettySize=auto;html=1;exitX=0;exitY=1;exitDx=0;exitDy=0;entryX=1;entryY=0;entryDx=0;entryDy=0;" edge="1" parent="1" source="bMkNHmtG_OxYwOTIjefc-50" target="bMkNHmtG_OxYwOTIjefc-35">
          <mxGeometry relative="1" as="geometry">
            <mxPoint x="30" y="390" as="targetPoint" />
          </mxGeometry>
        </mxCell>
        <mxCell id="bMkNHmtG_OxYwOTIjefc-35" value="RI" style="rhombus;whiteSpace=wrap;html=1;" vertex="1" parent="1">
          <mxGeometry x="-90" y="390" width="60" height="60" as="geometry" />
        </mxCell>
        <mxCell id="bMkNHmtG_OxYwOTIjefc-38" value="VMI" style="rhombus;whiteSpace=wrap;html=1;" vertex="1" parent="1">
          <mxGeometry x="-90" y="510" width="60" height="60" as="geometry" />
        </mxCell>
        <mxCell id="bMkNHmtG_OxYwOTIjefc-42" style="edgeStyle=none;rounded=0;orthogonalLoop=1;jettySize=auto;html=1;entryX=0.5;entryY=0;entryDx=0;entryDy=0;" edge="1" parent="1" source="bMkNHmtG_OxYwOTIjefc-16" target="bMkNHmtG_OxYwOTIjefc-16">
          <mxGeometry relative="1" as="geometry" />
        </mxCell>
        <mxCell id="bMkNHmtG_OxYwOTIjefc-56" style="edgeStyle=none;rounded=0;orthogonalLoop=1;jettySize=auto;html=1;exitX=0;exitY=0.5;exitDx=0;exitDy=0;entryX=1;entryY=0.5;entryDx=0;entryDy=0;" edge="1" parent="1" source="bMkNHmtG_OxYwOTIjefc-51" target="bMkNHmtG_OxYwOTIjefc-50">
          <mxGeometry relative="1" as="geometry">
            <mxPoint x="170" y="300" as="targetPoint" />
            <Array as="points" />
          </mxGeometry>
        </mxCell>
        <mxCell id="bMkNHmtG_OxYwOTIjefc-74" value="1" style="edgeLabel;html=1;align=center;verticalAlign=middle;resizable=0;points=[];" vertex="1" connectable="0" parent="bMkNHmtG_OxYwOTIjefc-56">
          <mxGeometry x="-0.4364" y="-1" relative="1" as="geometry">
            <mxPoint as="offset" />
          </mxGeometry>
        </mxCell>
        <mxCell id="bMkNHmtG_OxYwOTIjefc-50" value="BN" style="rhombus;whiteSpace=wrap;html=1;" vertex="1" parent="1">
          <mxGeometry x="-10" y="310" width="60" height="60" as="geometry" />
        </mxCell>
        <mxCell id="bMkNHmtG_OxYwOTIjefc-51" value="BN" style="rounded=1;whiteSpace=wrap;html=1;" vertex="1" parent="1">
          <mxGeometry x="160" y="320" width="40" height="40" as="geometry" />
        </mxCell>
        <mxCell id="bMkNHmtG_OxYwOTIjefc-64" value="0" style="edgeStyle=orthogonalEdgeStyle;curved=1;rounded=0;orthogonalLoop=1;jettySize=auto;html=1;exitX=0.5;exitY=1;exitDx=0;exitDy=0;" edge="1" parent="1" source="bMkNHmtG_OxYwOTIjefc-59" target="bMkNHmtG_OxYwOTIjefc-15">
          <mxGeometry relative="1" as="geometry" />
        </mxCell>
        <mxCell id="bMkNHmtG_OxYwOTIjefc-59" value="Pod" style="ellipse;whiteSpace=wrap;html=1;aspect=fixed;" vertex="1" parent="1">
          <mxGeometry x="240" y="80" width="40" height="40" as="geometry" />
        </mxCell>
        <mxCell id="bMkNHmtG_OxYwOTIjefc-66" value="0" style="edgeStyle=orthogonalEdgeStyle;curved=1;rounded=0;orthogonalLoop=1;jettySize=auto;html=1;exitX=0.5;exitY=0;exitDx=0;exitDy=0;entryX=0.5;entryY=1;entryDx=0;entryDy=0;" edge="1" parent="1" source="bMkNHmtG_OxYwOTIjefc-60" target="bMkNHmtG_OxYwOTIjefc-65">
          <mxGeometry relative="1" as="geometry" />
        </mxCell>
        <mxCell id="bMkNHmtG_OxYwOTIjefc-60" value="Pod" style="ellipse;whiteSpace=wrap;html=1;aspect=fixed;" vertex="1" parent="1">
          <mxGeometry x="-80" y="80" width="40" height="40" as="geometry" />
        </mxCell>
        <mxCell id="bMkNHmtG_OxYwOTIjefc-67" value="0" style="edgeStyle=orthogonalEdgeStyle;curved=1;rounded=0;orthogonalLoop=1;jettySize=auto;html=1;exitX=1;exitY=0.5;exitDx=0;exitDy=0;entryX=0.5;entryY=0;entryDx=0;entryDy=0;" edge="1" parent="1" source="bMkNHmtG_OxYwOTIjefc-65" target="bMkNHmtG_OxYwOTIjefc-59">
          <mxGeometry relative="1" as="geometry" />
        </mxCell>
        <mxCell id="bMkNHmtG_OxYwOTIjefc-65" value="CM" style="ellipse;whiteSpace=wrap;html=1;aspect=fixed;" vertex="1" parent="1">
          <mxGeometry x="-80" width="40" height="40" as="geometry" />
        </mxCell>
        <mxCell id="bMkNHmtG_OxYwOTIjefc-81" value="" style="edgeStyle=orthogonalEdgeStyle;curved=1;rounded=0;orthogonalLoop=1;jettySize=auto;html=1;" edge="1" parent="1" source="bMkNHmtG_OxYwOTIjefc-75" target="bMkNHmtG_OxYwOTIjefc-77">
          <mxGeometry relative="1" as="geometry" />
        </mxCell>
        <mxCell id="bMkNHmtG_OxYwOTIjefc-93" value="1" style="edgeLabel;html=1;align=center;verticalAlign=middle;resizable=0;points=[];" vertex="1" connectable="0" parent="bMkNHmtG_OxYwOTIjefc-81">
          <mxGeometry x="-0.05" y="1" relative="1" as="geometry">
            <mxPoint as="offset" />
          </mxGeometry>
        </mxCell>
        <mxCell id="bMkNHmtG_OxYwOTIjefc-75" value="Pod" style="ellipse;whiteSpace=wrap;html=1;aspect=fixed;" vertex="1" parent="1">
          <mxGeometry x="600" y="160" width="40" height="40" as="geometry" />
        </mxCell>
        <mxCell id="bMkNHmtG_OxYwOTIjefc-82" value="" style="edgeStyle=orthogonalEdgeStyle;curved=1;rounded=0;orthogonalLoop=1;jettySize=auto;html=1;" edge="1" parent="1" source="bMkNHmtG_OxYwOTIjefc-77" target="bMkNHmtG_OxYwOTIjefc-78">
          <mxGeometry relative="1" as="geometry" />
        </mxCell>
        <mxCell id="bMkNHmtG_OxYwOTIjefc-95" value="1" style="edgeLabel;html=1;align=center;verticalAlign=middle;resizable=0;points=[];" vertex="1" connectable="0" parent="bMkNHmtG_OxYwOTIjefc-82">
          <mxGeometry x="-0.15" y="-1" relative="1" as="geometry">
            <mxPoint as="offset" />
          </mxGeometry>
        </mxCell>
        <mxCell id="bMkNHmtG_OxYwOTIjefc-83" value="" style="edgeStyle=orthogonalEdgeStyle;curved=1;rounded=0;orthogonalLoop=1;jettySize=auto;html=1;" edge="1" parent="1" source="bMkNHmtG_OxYwOTIjefc-77" target="bMkNHmtG_OxYwOTIjefc-79">
          <mxGeometry relative="1" as="geometry" />
        </mxCell>
        <mxCell id="bMkNHmtG_OxYwOTIjefc-94" value="0" style="edgeLabel;html=1;align=center;verticalAlign=middle;resizable=0;points=[];" vertex="1" connectable="0" parent="bMkNHmtG_OxYwOTIjefc-83">
          <mxGeometry x="-0.0545" relative="1" as="geometry">
            <mxPoint as="offset" />
          </mxGeometry>
        </mxCell>
        <mxCell id="bMkNHmtG_OxYwOTIjefc-77" value="VMI" style="ellipse;whiteSpace=wrap;html=1;aspect=fixed;" vertex="1" parent="1">
          <mxGeometry x="600" y="240" width="40" height="40" as="geometry" />
        </mxCell>
        <mxCell id="bMkNHmtG_OxYwOTIjefc-88" value="" style="edgeStyle=orthogonalEdgeStyle;curved=1;rounded=0;orthogonalLoop=1;jettySize=auto;html=1;" edge="1" parent="1" source="bMkNHmtG_OxYwOTIjefc-78" target="bMkNHmtG_OxYwOTIjefc-87">
          <mxGeometry relative="1" as="geometry" />
        </mxCell>
        <mxCell id="bMkNHmtG_OxYwOTIjefc-123" value="1" style="edgeLabel;html=1;align=center;verticalAlign=middle;resizable=0;points=[];" vertex="1" connectable="0" parent="bMkNHmtG_OxYwOTIjefc-88">
          <mxGeometry x="-0.2" y="1" relative="1" as="geometry">
            <mxPoint as="offset" />
          </mxGeometry>
        </mxCell>
        <mxCell id="bMkNHmtG_OxYwOTIjefc-78" value="VN" style="ellipse;whiteSpace=wrap;html=1;aspect=fixed;" vertex="1" parent="1">
          <mxGeometry x="600" y="320" width="40" height="40" as="geometry" />
        </mxCell>
        <mxCell id="bMkNHmtG_OxYwOTIjefc-79" value="VMI" style="rhombus;whiteSpace=wrap;html=1;" vertex="1" parent="1">
          <mxGeometry x="470" y="230" width="60" height="60" as="geometry" />
        </mxCell>
        <mxCell id="bMkNHmtG_OxYwOTIjefc-91" style="edgeStyle=orthogonalEdgeStyle;curved=1;rounded=0;orthogonalLoop=1;jettySize=auto;html=1;entryX=1;entryY=0.5;entryDx=0;entryDy=0;" edge="1" parent="1" source="bMkNHmtG_OxYwOTIjefc-87" target="bMkNHmtG_OxYwOTIjefc-89">
          <mxGeometry relative="1" as="geometry" />
        </mxCell>
        <mxCell id="bMkNHmtG_OxYwOTIjefc-99" value="0" style="edgeLabel;html=1;align=center;verticalAlign=middle;resizable=0;points=[];" vertex="1" connectable="0" parent="bMkNHmtG_OxYwOTIjefc-91">
          <mxGeometry x="-0.0545" relative="1" as="geometry">
            <mxPoint as="offset" />
          </mxGeometry>
        </mxCell>
        <mxCell id="bMkNHmtG_OxYwOTIjefc-129" style="edgeStyle=orthogonalEdgeStyle;rounded=0;orthogonalLoop=1;jettySize=auto;html=1;entryX=0;entryY=0.5;entryDx=0;entryDy=0;" edge="1" parent="1" source="bMkNHmtG_OxYwOTIjefc-87" target="bMkNHmtG_OxYwOTIjefc-90">
          <mxGeometry relative="1" as="geometry" />
        </mxCell>
        <mxCell id="bMkNHmtG_OxYwOTIjefc-130" value="0" style="edgeLabel;html=1;align=center;verticalAlign=middle;resizable=0;points=[];" vertex="1" connectable="0" parent="bMkNHmtG_OxYwOTIjefc-129">
          <mxGeometry x="-0.175" y="-2" relative="1" as="geometry">
            <mxPoint as="offset" />
          </mxGeometry>
        </mxCell>
        <mxCell id="bMkNHmtG_OxYwOTIjefc-87" value="RI" style="ellipse;whiteSpace=wrap;html=1;aspect=fixed;" vertex="1" parent="1">
          <mxGeometry x="600" y="400" width="40" height="40" as="geometry" />
        </mxCell>
        <mxCell id="bMkNHmtG_OxYwOTIjefc-101" style="edgeStyle=orthogonalEdgeStyle;curved=1;rounded=0;orthogonalLoop=1;jettySize=auto;html=1;exitX=0.5;exitY=0;exitDx=0;exitDy=0;entryX=0.5;entryY=1;entryDx=0;entryDy=0;" edge="1" parent="1" source="bMkNHmtG_OxYwOTIjefc-89" target="bMkNHmtG_OxYwOTIjefc-79">
          <mxGeometry relative="1" as="geometry" />
        </mxCell>
        <mxCell id="bMkNHmtG_OxYwOTIjefc-111" value="1" style="edgeLabel;html=1;align=center;verticalAlign=middle;resizable=0;points=[];" vertex="1" connectable="0" parent="bMkNHmtG_OxYwOTIjefc-101">
          <mxGeometry x="-0.0889" relative="1" as="geometry">
            <mxPoint as="offset" />
          </mxGeometry>
        </mxCell>
        <mxCell id="bMkNHmtG_OxYwOTIjefc-89" value="RI" style="rhombus;whiteSpace=wrap;html=1;" vertex="1" parent="1">
          <mxGeometry x="470" y="390" width="60" height="60" as="geometry" />
        </mxCell>
        <mxCell id="bMkNHmtG_OxYwOTIjefc-121" style="edgeStyle=orthogonalEdgeStyle;rounded=0;orthogonalLoop=1;jettySize=auto;html=1;exitX=0.5;exitY=1;exitDx=0;exitDy=0;entryX=0.5;entryY=0;entryDx=0;entryDy=0;" edge="1" parent="1" source="bMkNHmtG_OxYwOTIjefc-90" target="bMkNHmtG_OxYwOTIjefc-102">
          <mxGeometry relative="1" as="geometry" />
        </mxCell>
        <mxCell id="bMkNHmtG_OxYwOTIjefc-128" value="1" style="edgeLabel;html=1;align=center;verticalAlign=middle;resizable=0;points=[];" vertex="1" connectable="0" parent="bMkNHmtG_OxYwOTIjefc-121">
          <mxGeometry x="-0.025" y="1" relative="1" as="geometry">
            <mxPoint as="offset" />
          </mxGeometry>
        </mxCell>
        <mxCell id="bMkNHmtG_OxYwOTIjefc-90" value="RI" style="rounded=1;whiteSpace=wrap;html=1;" vertex="1" parent="1">
          <mxGeometry x="720" y="400" width="40" height="40" as="geometry" />
        </mxCell>
        <mxCell id="bMkNHmtG_OxYwOTIjefc-106" style="edgeStyle=none;rounded=0;orthogonalLoop=1;jettySize=auto;html=1;exitX=0;exitY=0.5;exitDx=0;exitDy=0;entryX=1;entryY=0.5;entryDx=0;entryDy=0;" edge="1" parent="1" source="bMkNHmtG_OxYwOTIjefc-102" target="bMkNHmtG_OxYwOTIjefc-103">
          <mxGeometry relative="1" as="geometry" />
        </mxCell>
        <mxCell id="bMkNHmtG_OxYwOTIjefc-109" value="0" style="edgeLabel;html=1;align=center;verticalAlign=middle;resizable=0;points=[];" vertex="1" connectable="0" parent="bMkNHmtG_OxYwOTIjefc-106">
          <mxGeometry x="-0.1455" y="1" relative="1" as="geometry">
            <mxPoint as="offset" />
          </mxGeometry>
        </mxCell>
        <mxCell id="bMkNHmtG_OxYwOTIjefc-102" value="BN" style="rounded=1;whiteSpace=wrap;html=1;" vertex="1" parent="1">
          <mxGeometry x="720" y="520" width="40" height="40" as="geometry" />
        </mxCell>
        <mxCell id="bMkNHmtG_OxYwOTIjefc-122" style="edgeStyle=orthogonalEdgeStyle;rounded=0;orthogonalLoop=1;jettySize=auto;html=1;entryX=0.5;entryY=1;entryDx=0;entryDy=0;" edge="1" parent="1" source="bMkNHmtG_OxYwOTIjefc-103" target="bMkNHmtG_OxYwOTIjefc-89">
          <mxGeometry relative="1" as="geometry" />
        </mxCell>
        <mxCell id="bMkNHmtG_OxYwOTIjefc-103" value="BN" style="rhombus;whiteSpace=wrap;html=1;" vertex="1" parent="1">
          <mxGeometry x="470" y="510" width="60" height="60" as="geometry" />
        </mxCell>
        <mxCell id="bMkNHmtG_OxYwOTIjefc-135" value="3" style="edgeStyle=orthogonalEdgeStyle;rounded=0;orthogonalLoop=1;jettySize=auto;html=1;" edge="1" parent="1" source="bMkNHmtG_OxYwOTIjefc-131" target="bMkNHmtG_OxYwOTIjefc-132">
          <mxGeometry relative="1" as="geometry" />
        </mxCell>
        <mxCell id="bMkNHmtG_OxYwOTIjefc-151" value="1" style="edgeStyle=orthogonalEdgeStyle;rounded=0;orthogonalLoop=1;jettySize=auto;html=1;exitX=1;exitY=0.5;exitDx=0;exitDy=0;entryX=0;entryY=0.5;entryDx=0;entryDy=0;" edge="1" parent="1" source="bMkNHmtG_OxYwOTIjefc-131" target="bMkNHmtG_OxYwOTIjefc-150">
          <mxGeometry relative="1" as="geometry" />
        </mxCell>
        <mxCell id="bMkNHmtG_OxYwOTIjefc-159" value="2" style="edgeStyle=orthogonalEdgeStyle;rounded=0;orthogonalLoop=1;jettySize=auto;html=1;" edge="1" parent="1" source="bMkNHmtG_OxYwOTIjefc-131" target="bMkNHmtG_OxYwOTIjefc-146">
          <mxGeometry relative="1" as="geometry" />
        </mxCell>
        <mxCell id="bMkNHmtG_OxYwOTIjefc-131" value="Pod" style="ellipse;whiteSpace=wrap;html=1;aspect=fixed;" vertex="1" parent="1">
          <mxGeometry x="400" y="720" width="40" height="40" as="geometry" />
        </mxCell>
        <mxCell id="bMkNHmtG_OxYwOTIjefc-165" value="1" style="edgeStyle=none;rounded=0;orthogonalLoop=1;jettySize=auto;html=1;exitX=0.5;exitY=1;exitDx=0;exitDy=0;entryX=0.5;entryY=0;entryDx=0;entryDy=0;" edge="1" parent="1" source="bMkNHmtG_OxYwOTIjefc-132" target="bMkNHmtG_OxYwOTIjefc-134">
          <mxGeometry relative="1" as="geometry" />
        </mxCell>
        <mxCell id="bMkNHmtG_OxYwOTIjefc-132" value="VR" style="ellipse;whiteSpace=wrap;html=1;aspect=fixed;" vertex="1" parent="1">
          <mxGeometry x="330" y="720" width="40" height="40" as="geometry" />
        </mxCell>
        <mxCell id="bMkNHmtG_OxYwOTIjefc-139" value="1" style="edgeStyle=orthogonalEdgeStyle;rounded=0;orthogonalLoop=1;jettySize=auto;html=1;exitX=0.5;exitY=1;exitDx=0;exitDy=0;" edge="1" parent="1" source="bMkNHmtG_OxYwOTIjefc-134" target="bMkNHmtG_OxYwOTIjefc-137">
          <mxGeometry relative="1" as="geometry" />
        </mxCell>
        <mxCell id="bMkNHmtG_OxYwOTIjefc-134" value="BN" style="rhombus;whiteSpace=wrap;html=1;" vertex="1" parent="1">
          <mxGeometry x="320" y="790" width="60" height="60" as="geometry" />
        </mxCell>
        <mxCell id="bMkNHmtG_OxYwOTIjefc-141" value="1" style="edgeStyle=orthogonalEdgeStyle;rounded=0;orthogonalLoop=1;jettySize=auto;html=1;" edge="1" parent="1" source="bMkNHmtG_OxYwOTIjefc-137" target="bMkNHmtG_OxYwOTIjefc-140">
          <mxGeometry relative="1" as="geometry" />
        </mxCell>
        <mxCell id="bMkNHmtG_OxYwOTIjefc-137" value="BN" style="rounded=1;whiteSpace=wrap;html=1;" vertex="1" parent="1">
          <mxGeometry x="330" y="880" width="40" height="40" as="geometry" />
        </mxCell>
        <mxCell id="bMkNHmtG_OxYwOTIjefc-155" value="1" style="edgeStyle=orthogonalEdgeStyle;rounded=0;orthogonalLoop=1;jettySize=auto;html=1;exitX=0.5;exitY=1;exitDx=0;exitDy=0;entryX=0.5;entryY=0;entryDx=0;entryDy=0;" edge="1" parent="1" source="bMkNHmtG_OxYwOTIjefc-140" target="bMkNHmtG_OxYwOTIjefc-154">
          <mxGeometry relative="1" as="geometry" />
        </mxCell>
        <mxCell id="bMkNHmtG_OxYwOTIjefc-140" value="RI" style="rounded=1;whiteSpace=wrap;html=1;" vertex="1" parent="1">
          <mxGeometry x="330" y="960" width="40" height="40" as="geometry" />
        </mxCell>
        <mxCell id="bMkNHmtG_OxYwOTIjefc-164" value="1" style="edgeStyle=none;rounded=0;orthogonalLoop=1;jettySize=auto;html=1;exitX=0;exitY=1;exitDx=0;exitDy=0;entryX=1;entryY=0;entryDx=0;entryDy=0;" edge="1" parent="1" source="bMkNHmtG_OxYwOTIjefc-142" target="bMkNHmtG_OxYwOTIjefc-154">
          <mxGeometry relative="1" as="geometry" />
        </mxCell>
        <mxCell id="bMkNHmtG_OxYwOTIjefc-166" value="2" style="edgeStyle=none;rounded=0;orthogonalLoop=1;jettySize=auto;html=1;" edge="1" parent="1" source="bMkNHmtG_OxYwOTIjefc-142" target="bMkNHmtG_OxYwOTIjefc-140">
          <mxGeometry relative="1" as="geometry" />
        </mxCell>
        <mxCell id="bMkNHmtG_OxYwOTIjefc-142" value="RI" style="ellipse;whiteSpace=wrap;html=1;aspect=fixed;" vertex="1" parent="1">
          <mxGeometry x="400" y="960" width="40" height="40" as="geometry" />
        </mxCell>
        <mxCell id="bMkNHmtG_OxYwOTIjefc-161" value="1" style="edgeStyle=orthogonalEdgeStyle;rounded=0;orthogonalLoop=1;jettySize=auto;html=1;" edge="1" parent="1" source="bMkNHmtG_OxYwOTIjefc-144" target="bMkNHmtG_OxYwOTIjefc-142">
          <mxGeometry relative="1" as="geometry" />
        </mxCell>
        <mxCell id="bMkNHmtG_OxYwOTIjefc-144" value="VN" style="ellipse;whiteSpace=wrap;html=1;aspect=fixed;" vertex="1" parent="1">
          <mxGeometry x="400" y="880" width="40" height="40" as="geometry" />
        </mxCell>
        <mxCell id="bMkNHmtG_OxYwOTIjefc-160" value="1" style="edgeStyle=orthogonalEdgeStyle;rounded=0;orthogonalLoop=1;jettySize=auto;html=1;" edge="1" parent="1" source="bMkNHmtG_OxYwOTIjefc-146" target="bMkNHmtG_OxYwOTIjefc-144">
          <mxGeometry relative="1" as="geometry" />
        </mxCell>
        <mxCell id="bMkNHmtG_OxYwOTIjefc-146" value="VM" style="ellipse;whiteSpace=wrap;html=1;aspect=fixed;" vertex="1" parent="1">
          <mxGeometry x="400" y="800" width="40" height="40" as="geometry" />
        </mxCell>
        <mxCell id="bMkNHmtG_OxYwOTIjefc-153" value="1" style="edgeStyle=orthogonalEdgeStyle;rounded=0;orthogonalLoop=1;jettySize=auto;html=1;exitX=0.5;exitY=1;exitDx=0;exitDy=0;entryX=0.5;entryY=0;entryDx=0;entryDy=0;" edge="1" parent="1" source="bMkNHmtG_OxYwOTIjefc-150" target="bMkNHmtG_OxYwOTIjefc-152">
          <mxGeometry relative="1" as="geometry" />
        </mxCell>
        <mxCell id="bMkNHmtG_OxYwOTIjefc-150" value="VMI" style="ellipse;whiteSpace=wrap;html=1;aspect=fixed;" vertex="1" parent="1">
          <mxGeometry x="480" y="720" width="40" height="40" as="geometry" />
        </mxCell>
        <mxCell id="bMkNHmtG_OxYwOTIjefc-152" value="VMI" style="rhombus;whiteSpace=wrap;html=1;" vertex="1" parent="1">
          <mxGeometry x="470" y="1030" width="60" height="60" as="geometry" />
        </mxCell>
        <mxCell id="bMkNHmtG_OxYwOTIjefc-162" value="1" style="edgeStyle=orthogonalEdgeStyle;rounded=0;orthogonalLoop=1;jettySize=auto;html=1;entryX=0;entryY=0.5;entryDx=0;entryDy=0;" edge="1" parent="1" source="bMkNHmtG_OxYwOTIjefc-154" target="bMkNHmtG_OxYwOTIjefc-152">
          <mxGeometry relative="1" as="geometry" />
        </mxCell>
        <mxCell id="bMkNHmtG_OxYwOTIjefc-154" value="RI" style="rhombus;whiteSpace=wrap;html=1;" vertex="1" parent="1">
          <mxGeometry x="320" y="1030" width="60" height="60" as="geometry" />
        </mxCell>
      </root>
    </mxGraphModel>
  </diagram>
</mxfile>
